<?xml version="1.0" encoding="UTF-8" standalone="no"?>
<!-- Created with Inkscape (http://www.inkscape.org/) -->

<svg
   width="125.40671mm"
   height="101.58582mm"
   viewBox="0 0 125.4067 101.58582"
   version="1.1"
   id="svg459"
   inkscape:version="1.2.2 (732a01da63, 2022-12-09)"
   sodipodi:docname="Cama_Doble.svg"
   xmlns:inkscape="http://www.inkscape.org/namespaces/inkscape"
   xmlns:sodipodi="http://sodipodi.sourceforge.net/DTD/sodipodi-0.dtd"
   xmlns="http://www.w3.org/2000/svg"
   xmlns:svg="http://www.w3.org/2000/svg">
  <sodipodi:namedview
     id="namedview461"
     pagecolor="#ffffff"
     bordercolor="#000000"
     borderopacity="0.25"
     inkscape:showpageshadow="2"
     inkscape:pageopacity="0.0"
     inkscape:pagecheckerboard="0"
     inkscape:deskcolor="#ccc"
     inkscape:document-units="mm"
     showgrid="false"
     inkscape:zoom="0.71624579"
     inkscape:cx="390.92725"
     inkscape:cy="78.883535"
     inkscape:window-width="1920"
     inkscape:window-height="991"
     inkscape:window-x="-9"
     inkscape:window-y="-9"
     inkscape:window-maximized="1"
     inkscape:current-layer="g362">
    <inkscape:page
       x="0"
       y="0"
       width="125.4067"
       height="101.58582"
       id="page701" />
    <inkscape:page
       x="134.09328"
       y="76.466423"
       width="0"
       height="0"
       id="page703" />
  </sodipodi:namedview>
  <defs
     id="defs456" />
  <g
     inkscape:label="Capa 1"
     inkscape:groupmode="layer"
     id="layer1"
     transform="translate(-1.4776119,-1.108209)">
    <g
       id="g362"
       transform="matrix(0.26458333,0,0,0.26458333,-3.8203124,-16.08209)">
      <path
         style="fill:#b9b9b9;fill-opacity:1"
         d="m 53.25,426.25379 c 5.9125,-0.1768 15.5875,-0.1768 21.5,0 5.9125,0.17679 1.075,0.32145 -10.75,0.32145 -11.825,0 -16.6625,-0.14466 -10.75,-0.32145 z m 384,0 c 5.9125,-0.1768 15.5875,-0.1768 21.5,0 5.9125,0.17679 1.075,0.32145 -10.75,0.32145 -11.825,0 -16.6625,-0.14466 -10.75,-0.32145 z M 42.5,246 c 0.995486,-1.1 2.034975,-2 2.309975,-2 0.275,0 -0.314489,0.9 -1.309975,2 -0.995486,1.1 -2.034975,2 -2.309975,2 -0.275,0 0.314489,-0.9 1.309975,-2 z m 425.90499,-0.25 -1.90499,-2.25 2.25,1.90499 c 1.2375,1.04774 2.25,2.06024 2.25,2.25 0,0.80025 -0.80479,0.20945 -2.59501,-1.90499 z M 175.25,245.25008 c 44.4125,-0.14405 117.0875,-0.14405 161.5,0 44.4125,0.14405 8.075,0.26192 -80.75,0.26192 -88.825,0 -125.1625,-0.11787 -80.75,-0.26192 z M 117.37817,213 c 0,-6.325 0.16237,-8.9125 0.36082,-5.75 0.19845,3.1625 0.19845,8.3375 0,11.5 -0.19845,3.1625 -0.36082,0.575 -0.36082,-5.75 z m 128,0 c 0,-6.325 0.16237,-8.9125 0.36082,-5.75 0.19845,3.1625 0.19845,8.3375 0,11.5 -0.19845,3.1625 -0.36082,0.575 -0.36082,-5.75 z m 21.00359,-0.5 c 0.002,-6.6 0.16382,-9.16987 0.35965,-5.71081 0.19583,3.45905 0.19422,8.85905 -0.004,12 -0.19781,3.14094 -0.35803,0.31081 -0.35606,-6.28919 z m 127.99641,0.5 c 0,-6.325 0.16237,-8.9125 0.36082,-5.75 0.19845,3.1625 0.19845,8.3375 0,11.5 -0.19845,3.1625 -0.36082,0.575 -0.36082,-5.75 z M 154.31351,181.25141 c 9.24743,-0.16519 24.09743,-0.16488 33,6.9e-4 8.90257,0.16557 1.33649,0.30072 -16.81351,0.30034 -18.15,-3.8e-4 -25.43392,-0.13584 -16.18649,-0.30103 z m 171,0 c 9.24743,-0.16519 24.09743,-0.16488 33,6.9e-4 8.90257,0.16557 1.33649,0.30072 -16.81351,0.30034 -18.15,-3.8e-4 -25.43392,-0.13584 -16.18649,-0.30103 z M 191.25,85.250128 c 35.6125,-0.145594 93.8875,-0.145594 129.5,0 35.6125,0.145594 6.475,0.264717 -64.75,0.264717 -71.225,0 -100.3625,-0.119123 -64.75,-0.264717 z"
         id="path372" />
      <path
         style="fill:#a3a3a3;fill-opacity:1"
         d="m 92.8125,245.31689 c 0.721875,-0.28887 1.584375,-0.25335 1.916667,0.0789 0.332291,0.33229 -0.258334,0.56864 -1.3125,0.52522 -1.164943,-0.048 -1.4019,-0.28494 -0.604167,-0.60416 z m 325,0 c 0.72187,-0.28887 1.58438,-0.25335 1.91667,0.0789 0.33229,0.33229 -0.25834,0.56864 -1.3125,0.52522 -1.16495,-0.048 -1.4019,-0.28494 -0.60417,-0.60416 z M 216.87244,187.25 c -1.24387,-1.58606 -1.2085,-1.62143 0.37756,-0.37756 0.9625,0.75485 1.75,1.54235 1.75,1.75 0,0.82304 -0.82119,0.29331 -2.12756,-1.37244 z M 107,173.62244 c 0,-0.20765 0.7875,-0.99515 1.75,-1.75 1.58606,-1.24387 1.62143,-1.2085 0.37756,0.37756 C 107.82119,173.91575 107,174.44548 107,173.62244 Z M 402.87244,172.25 c -1.24387,-1.58606 -1.2085,-1.62143 0.37756,-0.37756 0.9625,0.75485 1.75,1.54235 1.75,1.75 0,0.82304 -0.82119,0.29331 -2.12756,-1.37244 z M 124.8125,85.316886 c 0.72187,-0.288871 1.58437,-0.253344 1.91667,0.07895 0.33229,0.332292 -0.25834,0.568641 -1.3125,0.52522 -1.16495,-0.04798 -1.4019,-0.284941 -0.60417,-0.604167 z m 261,0 c 0.72187,-0.288871 1.58438,-0.253344 1.91667,0.07895 0.33229,0.332292 -0.25834,0.568641 -1.3125,0.52522 -1.16495,-0.04798 -1.4019,-0.284941 -0.60417,-0.604167 z"
         id="path370" />
      <path
         style="fill:#767676;fill-opacity:1"
         d="m 21.078947,295.41667 c 0.04798,-1.16495 0.284941,-1.4019 0.604167,-0.60417 0.288871,0.72187 0.253344,1.58438 -0.07895,1.91667 -0.332292,0.33229 -0.568641,-0.25834 -0.52522,-1.3125 z m 469.000003,0 c 0.048,-1.16495 0.28494,-1.4019 0.60416,-0.60417 0.28887,0.72187 0.25335,1.58438 -0.0789,1.91667 -0.33229,0.33229 -0.56864,-0.25834 -0.52522,-1.3125 z m -437.000003,-160 c 0.04798,-1.16495 0.284941,-1.4019 0.604167,-0.60417 0.288871,0.72187 0.253344,1.58437 -0.07895,1.91667 -0.332292,0.33229 -0.568641,-0.25834 -0.52522,-1.3125 z m 405.000003,0 c 0.048,-1.16495 0.28494,-1.4019 0.60416,-0.60417 0.28887,0.72187 0.25335,1.58437 -0.0789,1.91667 -0.33229,0.33229 -0.56864,-0.25834 -0.52522,-1.3125 z"
         id="path368" />
      <path
         style="fill:#606060;fill-opacity:1"
         d="m 21.471908,362.5 c 1.09e-4,-36.3 0.125081,-51.00477 0.277716,-32.67726 0.152635,18.32751 0.152546,48.02751 -1.97e-4,66 C 21.596683,413.79523 21.4718,398.8 21.471908,362.5 Z M 405.22271,411.75 405,395 H 256.02477 107.04954 l -0.31312,16.00101 -0.31313,16.00102 0.0384,-16.25102 L 106.5,394.5 255.78013,394.24673 c 121.3549,-0.20589 149.37298,-0.0113 149.77646,1.04014 0.27298,0.71138 0.35964,8.47535 0.19258,17.25327 L 405.44541,428.5 Z M 42.462849,410.5 42.5,394.5 H 64 85.5 l 0.03835,16.25101 0.03835,16.25102 L 85.263583,411.00101 84.950457,395 H 64 43.049543 l -0.311923,15.75 -0.311922,15.75 0.03715,-16 z m 384.000001,0 0.0371,-16 h 21.5 21.5 l 0.0383,16.25101 0.0384,16.25102 -0.31313,-16.00102 L 468.95046,395 H 448 427.04954 l -0.31192,15.75 -0.31192,15.75 0.0371,-16 z M 490.47171,362 c 0,-36.025 0.12502,-50.7625 0.27781,-32.75 0.15279,18.0125 0.15279,47.4875 0,65.5 -0.15279,18.0125 -0.27781,3.275 -0.27781,-32.75 z M 42.448084,372.7253 c -0.270004,-0.70361 -0.368778,-10.49215 -0.2195,-21.7523 L 42.5,330.5 H 256 469.5 v 21.5 21.5 l -213.2805,0.2523 c -172.489865,0.20406 -213.37439,0.008 -213.771416,-1.027 z M 469,352 V 331 H 256 43 v 21 21 H 256 469 Z M 42.415477,308.64033 c -0.287937,-0.75035 -0.3593,-4.01389 -0.158584,-7.2523 L 42.621831,295.5 42.810916,302.25 43,309 h 212.95431 212.95431 l 0.37547,-6.75 0.37548,-6.75 -0.0798,7 -0.0798,7 -213.2805,0.2523 C 76.818588,309.96453 42.855838,309.78789 42.415477,308.64033 Z M 53.464082,187 c 0,-27.775 0.128309,-39.1375 0.28513,-25.25 0.156822,13.8875 0.156822,36.6125 0,50.5 -0.156821,13.8875 -0.28513,2.525 -0.28513,-25.25 z m 404.999998,0 c 0,-27.775 0.12831,-39.1375 0.28513,-25.25 0.15682,13.8875 0.15682,36.6125 0,50.5 -0.15682,13.8875 -0.28513,2.525 -0.28513,-25.25 z M 74.460915,181.5 c 2.11e-4,-25.3 0.12996,-35.50664 0.288333,-22.68142 0.158372,12.82521 0.1582,33.52521 -3.83e-4,46 C 74.590283,217.29336 74.460705,206.8 74.460915,181.5 Z m 363.000005,0 c 2.1e-4,-25.3 0.12996,-35.50664 0.28833,-22.68142 0.15837,12.82521 0.1582,33.52521 -3.8e-4,46 C 437.59028,217.29336 437.46071,206.8 437.46092,181.5 Z M 122,188.62244 c 0,-0.20765 0.7875,-0.99515 1.75,-1.75 1.58606,-1.24387 1.62143,-1.2085 0.37756,0.37756 C 122.82119,188.91575 122,189.44548 122,188.62244 Z M 387.87244,187.25 c -1.24387,-1.58606 -1.2085,-1.62143 0.37756,-0.37756 1.66575,1.30637 2.19548,2.12756 1.37244,2.12756 -0.20765,0 -0.99515,-0.7875 -1.75,-1.75 z m -155.94813,-15 -2.42431,-2.75 2.75,2.42431 c 2.57029,2.26589 3.20859,3.07569 2.42431,3.07569 -0.17912,0 -1.41662,-1.2375 -2.75,-2.75 z M 278.5,173 c 0.99549,-1.1 2.03498,-2 2.30998,-2 0.275,0 -0.31449,0.9 -1.30998,2 -0.99549,1.1 -2.03498,2 -2.30998,2 -0.275,0 0.31449,-0.9 1.30998,-2 z"
         id="path366" />
      <path
         style="fill:#333333;fill-opacity:1"
         d="m 36.1269,446.50226 c -5.114418,-1.59517 -9.525457,-5.47666 -12.254814,-10.78364 -1.882795,-3.66091 -1.935626,-6.14571 -1.658417,-78 L 22.5,283.5 l 2.807766,-8 c 4.283958,-12.20602 9.926678,-20.91505 19.824439,-30.5972 L 53.920851,236.30559 54.210425,179.9028 54.5,123.5 l 2.807766,-8 C 66.050258,90.590545 85.403423,72.755312 110.77002,66.230965 116.99299,64.630405 127.9341,64.5 256,64.5 c 155.50846,0 144.08211,-0.533095 160.5,7.488103 19.78721,9.667329 34.04017,27.164159 39.49181,48.479877 C 457.8809,127.85423 458,131.5199 458,182.27419 v 53.95426 l 8.82822,8.63578 c 9.93926,9.72258 15.57432,18.41341 19.86401,30.63577 l 2.80777,8 0.28635,74.22937 c 0.31674,82.10814 0.69873,76.86297 -6.12103,84.04803 C 478.55048,447.16622 473.7716,448 448,448 422.2235,448 417.44407,447.16594 412.34272,441.7774 406.75091,435.8708 406.53674,434.93287 406,414 l -0.5,-19.5 H 256 106.5 L 106,414 c -0.53674,20.93287 -0.75091,21.8708 -6.34272,27.7774 -5.142236,5.43172 -9.83306,6.23184 -36.088781,6.1557 -16.51339,-0.0479 -24.311152,-0.45447 -27.441599,-1.43084 z M 85.774771,410.75 85.5,394.5 H 64 42.5 L 42.225229,410.75 41.950457,427 H 64 86.049543 Z m 383.999999,0 L 469.5,394.5 H 448 426.5 l -0.27477,16.25 -0.27477,16.25 H 448 470.04954 Z M 469.5,352 V 330.5 H 256 42.5 l -0.271416,20.473 c -0.149278,11.26015 -0.0505,21.04869 0.2195,21.7523 0.397026,1.03464 41.281551,1.23106 213.771416,1.027 L 469.5,373.5 Z m -0.1759,-52.2392 c -0.29545,-16.3582 -5.03007,-28.14677 -15.51597,-38.63267 -6.89113,-6.89113 -16.71491,-12.42292 -25.91124,-14.59069 -9.65955,-2.27695 -334.134228,-2.27695 -343.793777,0 -18.527452,4.3673 -34.139677,19.11573 -39.477928,37.29369 -1.732638,5.90003 -3.244461,22.11268 -2.293166,24.59171 0.551278,1.43661 20.179752,1.55862 213.887481,1.32946 L 469.5,309.5 Z M 80.5,226.07515 c 2.2,-0.48177 6.5875,-1.17815 9.75,-1.54751 l 5.75,-0.67155 0.01736,-11.67805 c 0.0096,-6.42292 0.671739,-14.76664 1.471532,-18.54161 3.403698,-16.06517 16.058368,-28.7393 32.085138,-32.13448 8.28834,-1.75583 71.75837,-2.14573 80.46632,-0.4943 16.06034,3.04578 29.32959,15.43653 33.56472,31.34254 0.82953,3.11548 1.37588,10.38396 1.38306,18.39981 L 245,224 h 10.89522 10.89522 l 0.36604,-15.75 c 0.3549,-15.27109 0.46304,-15.95551 3.55623,-22.50853 6.05608,-12.82999 17.95081,-22.26839 31.17378,-24.73619 8.78473,-1.63949 72.25645,-1.25807 80.47708,0.48362 16.06517,3.40369 28.7393,16.05836 32.13448,32.08513 0.80697,3.80928 1.47504,12.18109 1.48459,18.60401 l 0.0174,11.67805 5.75,0.67155 c 3.1625,0.36936 7.55,1.06574 9.75,1.54751 2.2,0.48178 4.59305,0.88696 5.3179,0.9004 1.07785,0.02 1.24993,-8.85513 0.94475,-48.72555 -0.33285,-43.48502 -0.56648,-49.344 -2.16328,-54.25 -6.16163,-18.93103 -21.172,-33.094544 -39.70248,-37.46256 -9.63518,-2.271211 -270.1586,-2.271211 -279.79378,0 C 97.57263,90.905456 82.562264,105.06897 76.400629,124 c -1.596796,4.906 -1.830429,10.76498 -2.163278,54.25 -0.305181,39.87042 -0.133099,48.74555 0.94475,48.72555 C 75.906946,226.96211 78.3,226.55693 80.5,226.07515 Z M 224,210.81572 c 0,-15.02528 -1.39317,-19.52134 -7.64606,-24.6755 C 210.44884,181.27274 207.97596,181 169.74817,181 h -35.51979 l -5.34875,2.79422 c -3.89001,2.03217 -6.17114,4.12295 -8.36419,7.66627 -2.91612,4.71157 -3.02616,5.32767 -3.34102,18.70577 L 116.84883,224 H 170.42442 224 Z m 170.82558,-0.64946 c -0.31486,-13.3781 -0.4249,-13.9942 -3.34102,-18.70577 -2.19305,-3.54332 -4.47418,-5.6341 -8.36419,-7.66627 L 377.77162,181 h -35.51979 c -38.45988,0 -40.67518,0.25172 -46.82471,5.32069 -6.13147,5.05407 -7.37987,9.1725 -7.40516,24.42931 L 288,224 h 53.57558 53.57559 z"
         id="path364" />
    </g>
  </g>
</svg>
